<svg xmlns="http://www.w3.org/2000/svg" version="1.2" baseProfile="tiny" viewBox="0.00 0.00 1784.00 1484.00">
  <path fill="#22CE89" d="M 291.65 0.00
  Q 493.49 335.65 555.38 437.86
  Q 630.99 562.73 662.12 612.66
  Q 672.72 629.66 677.98 637.89
  A 1.23 1.22 -31.7 0 0 679.65 638.28
  Q 681.06 637.45 682.59 635.58
  Q 689.21 627.54 695.82 617.31
  C 709.17 596.65 721.73 575.34 732.43 553.20
  C 736.87 544.03 740.68 532.88 734.88 523.28
  Q 734.63 522.87 731.68 517.77
  Q 703.51 468.98 636.16 356.82
  Q 513.56 152.65 475.44 88.57
  Q 440.26 29.42 432.11 14.92
  Q 429.22 9.77 428.55 8.44
  A 2.20 2.18 -33.8 0 1 429.09 5.77
  C 431.85 3.45 438.38 2.80 442.01 2.49
  Q 455.11 1.38 471.75 1.16
  Q 505.21 0.73 549.25 1.22
  Q 611.12 1.91 718.06 3.16
  A 1.06 1.05 -14.8 0 1 718.95 3.67
  Q 776.99 101.75 821.76 176.26
  Q 849.90 223.10 876.34 262.42
  Q 885.47 275.99 890.20 281.30
  Q 891.72 283.01 892.76 283.86
  A 0.68 0.67 -52.4 0 0 893.73 283.73
  Q 896.95 279.22 901.58 271.84
  Q 928.26 229.27 949.99 193.49
  Q 1011.32 92.48 1064.90 3.45
  A 0.54 0.52 14.5 0 1 1065.36 3.19
  Q 1297.93 2.05 1476.27 1.36
  C 1566.59 1.02 1664.42 1.06 1756.75 2.96
  Q 1770.43 3.25 1784.00 4.46
  Q 1784.00 4.58 1784.00 4.69
  Q 1763.55 40.41 1742.64 75.38
  C 1558.57 383.27 1375.06 687.43 1164.81 1035.32
  Q 1027.44 1262.63 935.05 1414.06
  Q 914.79 1447.27 894.66 1479.65
  Q 893.88 1480.90 891.85 1483.53
  A 0.51 0.50 -50.1 0 1 891.13 1483.60
  Q 890.00 1482.63 889.10 1481.39
  Q 882.77 1472.76 875.68 1461.83
  C 846.97 1417.61 821.41 1374.46 792.53 1325.22
  Q 770.24 1287.22 753.62 1257.38
  Q 750.00 1250.89 747.78 1246.10
  A 2.77 2.76 46.3 0 1 747.83 1243.67
  Q 749.61 1240.19 753.03 1234.28
  Q 781.58 1184.83 836.43 1092.67
  C 935.62 926.01 1049.36 736.44 1284.69 343.70
  Q 1314.86 293.36 1332.56 263.31
  C 1334.73 259.64 1336.63 255.06 1330.59 253.66
  Q 1324.31 252.21 1317.95 252.03
  C 1289.31 251.25 1256.14 251.65 1209.82 252.03
  A 0.63 0.62 15.0 0 0 1209.28 252.34
  Q 1015.35 576.99 840.43 867.94
  Q 757.47 1005.93 700.51 1098.04
  Q 685.86 1121.72 679.64 1131.13
  A 0.74 0.74 0.0 0 1 678.40 1131.12
  Q 668.24 1115.15 654.64 1092.86
  Q 578.12 967.47 463.54 777.71
  C 323.11 545.14 174.08 297.86 32.46 60.30
  Q 16.06 32.79 0.00 5.09
  Q 0.00 4.83 0.00 4.58
  Q 3.71 3.52 7.75 3.24
  C 43.09 0.78 78.50 0.52 113.90 0.00
  L 291.65 0.00
  Z" />
</svg>